# xmcd
# 
# Track frame offsets:
#     150
#     3383
#     70804
#     186465
# 
# Disc length: 4112
# 
# Revision: 0
# Processed by: cddbd v1.5.2PL0 Copyright (c) Steve Scherf et al.
# Submitted via: BonkEnc v1.0
# 
DISCID=30100e04
DTITLE=Falko Löffler - Die Prophezeiung
DYEAR=0
DGENRE=
TTITLE0=Teil 21
TTITLE1=Teil 22
TTITLE2=Teil 23
TTITLE3=Teil 24
EXTD=
EXTT0=
EXTT1=
EXTT2=
EXTT3=
PLAYORDER=
